<svg width="51" height="34" viewBox="0 0 51 34" fill="none" xmlns="http://www.w3.org/2000/svg">
<path d="M25.1048 32.508C25.5018 33.1696 26.4667 33.1515 26.8385 32.4754L30.9301 25.0362C31.2816 24.3971 31.9532 24 32.6825 24H39C45.3513 24 50.5 18.8513 50.5 12.5V12.5C50.5 6.14873 45.3513 1 39 1H26H12.5C6.14873 1 1 6.14873 1 12.5V12.5C1 18.8513 6.14873 24 12.5 24H18.8676C19.5701 24 20.2212 24.3686 20.5826 24.971L25.1048 32.508Z" fill="white" stroke="#9AA0A6"/>
<rect x="4" y="3" width="18" height="18" rx="9" fill="black"/>
</svg>
